<?xml version="1.0" encoding="UTF-8"?>
<svg xmlns="http://www.w3.org/2000/svg" xmlns:xlink="http://www.w3.org/1999/xlink" width="435pt" height="147pt" viewBox="0 0 435 147" version="1.1">
<g id="surface1">
<path style=" stroke:none;fill-rule:nonzero;fill:rgb(100%,15.686275%,15.686275%);fill-opacity:1;" d="M 13.597656 85.617188 C 7.589844 85.617188 2.722656 80.742188 2.722656 74.726562 L 2.722656 31.304688 C 2.722656 23.050781 9.429688 16.332031 17.675781 16.332031 L 59.808594 16.332031 C 65.816406 16.332031 70.683594 21.207031 70.683594 27.222656 C 70.683594 33.234375 65.816406 38.109375 59.808594 38.109375 L 24.472656 38.109375 L 24.472656 74.726562 C 24.472656 80.742188 19.605469 85.617188 13.597656 85.617188 "/>
<path style=" stroke:none;fill-rule:nonzero;fill:rgb(100%,54.901961%,7.843137%);fill-opacity:1;" d="M 116.898438 76.222656 C 103.40625 76.222656 92.433594 87.210938 92.433594 100.722656 C 92.433594 114.234375 103.40625 125.222656 116.898438 125.222656 C 130.390625 125.222656 141.363281 114.234375 141.363281 100.722656 C 141.363281 87.210938 130.390625 76.222656 116.898438 76.222656 M 116.898438 147 C 91.414062 147 70.683594 126.242188 70.683594 100.722656 C 70.683594 75.203125 91.414062 54.445312 116.898438 54.445312 C 142.382812 54.445312 163.109375 75.203125 163.109375 100.722656 C 163.109375 126.242188 142.382812 147 116.898438 147 "/>
<path style=" stroke:none;fill-rule:nonzero;fill:rgb(31.372549%,76.862745%,7.843137%);fill-opacity:1;" d="M 116.898438 21.777344 C 107.90625 21.777344 100.585938 29.101562 100.585938 38.109375 C 100.585938 47.117188 107.90625 54.445312 116.898438 54.445312 C 125.894531 54.445312 133.210938 47.117188 133.210938 38.109375 C 133.210938 29.101562 125.894531 21.777344 116.898438 21.777344 M 116.898438 76.222656 C 95.910156 76.222656 78.839844 59.128906 78.839844 38.109375 C 78.839844 17.09375 95.910156 0 116.898438 0 C 137.886719 0 154.957031 17.09375 154.957031 38.109375 C 154.957031 59.128906 137.886719 76.222656 116.898438 76.222656 "/>
<path style=" stroke:none;fill-rule:nonzero;fill:rgb(15.686275%,62.745098%,19.607843%);fill-opacity:1;" d="M 116.898438 54.445312 C 106.390625 54.445312 96.699219 57.980469 88.925781 63.917969 C 95.882812 71.476562 105.847656 76.222656 116.898438 76.222656 C 127.949219 76.222656 137.910156 71.476562 144.871094 63.917969 C 137.097656 57.980469 127.40625 54.445312 116.898438 54.445312 "/>
<path style=" stroke:none;fill-rule:nonzero;fill:rgb(0%,56.862745%,84.313725%);fill-opacity:1;" d="M 35.34375 136.113281 C 22.089844 136.113281 9.621094 129.628906 1.984375 118.761719 C -1.472656 113.84375 -0.296875 107.050781 4.617188 103.589844 C 9.527344 100.128906 16.308594 101.308594 19.765625 106.226562 C 23.335938 111.304688 29.15625 114.335938 35.34375 114.335938 C 45.835938 114.335938 54.375 105.785156 54.375 95.277344 C 54.375 84.769531 45.835938 76.222656 35.34375 76.222656 C 30.050781 76.222656 25.136719 78.34375 21.503906 82.199219 C 17.378906 86.578125 10.5 86.773438 6.128906 82.648438 C 1.765625 78.515625 1.566406 71.625 5.6875 67.253906 C 13.359375 59.113281 24.171875 54.441406 35.34375 54.441406 C 57.828125 54.441406 76.121094 72.761719 76.121094 95.277344 C 76.121094 117.796875 57.828125 136.113281 35.34375 136.113281 "/>
<path style=" stroke:none;fill-rule:nonzero;fill:rgb(0%,43.137255%,78.431373%);fill-opacity:1;" d="M 5.6875 67.253906 C 3.671875 69.386719 2.699219 72.125 2.730469 74.847656 C 2.734375 75.085938 2.75 75.320312 2.765625 75.554688 C 2.777344 75.683594 2.78125 75.8125 2.796875 75.9375 C 2.816406 76.160156 2.855469 76.378906 2.894531 76.597656 C 2.917969 76.734375 2.9375 76.871094 2.964844 77.007812 C 3.011719 77.21875 3.066406 77.421875 3.125 77.628906 C 3.164062 77.761719 3.195312 77.898438 3.238281 78.03125 C 3.304688 78.242188 3.386719 78.449219 3.464844 78.65625 C 3.511719 78.777344 3.550781 78.898438 3.601562 79.019531 C 3.695312 79.234375 3.804688 79.445312 3.910156 79.65625 C 3.960938 79.757812 4.007812 79.859375 4.0625 79.960938 C 4.175781 80.167969 4.304688 80.367188 4.429688 80.5625 C 4.492188 80.664062 4.546875 80.765625 4.617188 80.867188 C 4.738281 81.042969 4.875 81.214844 5.003906 81.386719 C 5.09375 81.496094 5.175781 81.613281 5.269531 81.722656 C 5.390625 81.871094 5.527344 82.011719 5.660156 82.152344 C 5.777344 82.277344 5.886719 82.402344 6.011719 82.523438 C 6.144531 82.648438 6.28125 82.769531 6.421875 82.890625 C 6.550781 83.011719 6.683594 83.125 6.820312 83.238281 C 6.96875 83.351562 7.117188 83.464844 7.273438 83.570312 C 7.40625 83.671875 7.542969 83.765625 7.683594 83.855469 C 7.84375 83.960938 8.007812 84.058594 8.171875 84.15625 C 8.316406 84.234375 8.457031 84.316406 8.597656 84.394531 C 8.769531 84.476562 8.941406 84.5625 9.113281 84.640625 C 9.265625 84.707031 9.417969 84.773438 9.570312 84.835938 C 9.742188 84.902344 9.917969 84.96875 10.089844 85.027344 C 10.253906 85.082031 10.417969 85.132812 10.578125 85.179688 C 10.753906 85.234375 10.933594 85.277344 11.113281 85.320312 C 11.28125 85.355469 11.445312 85.394531 11.609375 85.425781 C 11.796875 85.460938 11.988281 85.488281 12.179688 85.515625 C 12.339844 85.535156 12.5 85.558594 12.664062 85.570312 C 12.867188 85.585938 13.070312 85.59375 13.277344 85.597656 C 13.433594 85.601562 13.585938 85.609375 13.742188 85.605469 C 13.945312 85.605469 14.148438 85.589844 14.351562 85.578125 C 14.511719 85.570312 14.671875 85.5625 14.832031 85.542969 C 15.011719 85.523438 15.191406 85.488281 15.371094 85.457031 C 15.546875 85.429688 15.722656 85.402344 15.894531 85.367188 C 16.054688 85.335938 16.214844 85.289062 16.371094 85.246094 C 16.554688 85.195312 16.738281 85.152344 16.917969 85.09375 C 17.078125 85.042969 17.226562 84.984375 17.375 84.925781 C 17.550781 84.863281 17.734375 84.800781 17.90625 84.722656 C 18.0625 84.652344 18.214844 84.578125 18.371094 84.5 C 18.53125 84.421875 18.691406 84.347656 18.847656 84.257812 C 19.003906 84.175781 19.148438 84.082031 19.292969 83.988281 C 19.449219 83.894531 19.605469 83.800781 19.753906 83.703125 C 19.886719 83.609375 20.011719 83.503906 20.140625 83.410156 C 20.300781 83.289062 20.457031 83.171875 20.609375 83.039062 C 20.722656 82.949219 20.824219 82.847656 20.933594 82.75 C 21.09375 82.601562 21.253906 82.453125 21.40625 82.292969 C 23.300781 80.332031 24.46875 77.671875 24.46875 74.726562 L 24.46875 55.949219 C 17.359375 57.925781 10.820312 61.804688 5.6875 67.253906 "/>
<path style=" stroke:none;fill-rule:nonzero;fill:rgb(0%,43.137255%,78.431373%);fill-opacity:1;" d="M 72.246094 112.632812 C 74.726562 107.363281 76.121094 101.480469 76.121094 95.277344 C 76.121094 90.992188 75.453125 86.859375 74.222656 82.96875 C 71.949219 88.441406 70.683594 94.4375 70.683594 100.722656 C 70.683594 104.839844 71.230469 108.832031 72.246094 112.632812 "/>
<path style=" stroke:none;fill-rule:nonzero;fill:rgb(31.372549%,31.372549%,31.372549%);fill-opacity:1;" d="M 191.652344 136.113281 C 187.898438 136.113281 184.855469 133.066406 184.855469 129.304688 L 184.855469 29.289062 C 184.855469 22.355469 190.632812 16.71875 197.730469 16.71875 L 286.144531 16.71875 C 293.226562 16.71875 298.992188 22.355469 298.992188 29.289062 L 298.992188 115.679688 C 298.992188 126.800781 289.894531 135.851562 278.714844 135.851562 L 269.386719 135.851562 C 265.636719 135.851562 262.589844 132.804688 262.589844 129.042969 C 262.589844 125.289062 265.636719 122.238281 269.386719 122.238281 L 278.714844 122.238281 C 282.398438 122.238281 285.394531 119.292969 285.394531 115.679688 L 285.394531 30.328125 L 198.453125 30.328125 L 198.453125 129.304688 C 198.453125 133.066406 195.410156 136.113281 191.652344 136.113281 "/>
<path style=" stroke:none;fill-rule:nonzero;fill:rgb(31.372549%,31.372549%,31.372549%);fill-opacity:1;" d="M 270.4375 58.675781 L 213.410156 58.675781 C 209.660156 58.675781 206.613281 55.628906 206.613281 51.871094 C 206.613281 48.113281 209.660156 45.066406 213.410156 45.066406 L 270.4375 45.066406 C 274.191406 45.066406 277.234375 48.113281 277.234375 51.871094 C 277.234375 55.628906 274.191406 58.675781 270.4375 58.675781 "/>
<path style=" stroke:none;fill-rule:nonzero;fill:rgb(31.372549%,31.372549%,31.372549%);fill-opacity:1;" d="M 343.570312 58.675781 L 316.832031 58.675781 C 313.078125 58.675781 310.035156 55.628906 310.035156 51.871094 C 310.035156 48.113281 313.078125 45.066406 316.832031 45.066406 L 343.570312 45.066406 C 347.324219 45.066406 350.367188 48.113281 350.367188 51.871094 C 350.367188 55.628906 347.324219 58.675781 343.570312 58.675781 "/>
<path style=" stroke:none;fill-rule:nonzero;fill:rgb(31.372549%,31.372549%,31.372549%);fill-opacity:1;" d="M 316.828125 114.160156 C 313.792969 114.160156 311.027344 112.109375 310.242188 109.03125 C 309.320312 105.386719 311.515625 101.683594 315.152344 100.757812 C 319.726562 99.59375 333 95.738281 339.441406 91.945312 C 342.675781 90.039062 346.839844 91.125 348.742188 94.363281 C 350.644531 97.605469 349.5625 101.777344 346.328125 103.679688 C 336.898438 109.230469 319.25 113.761719 318.507812 113.949219 C 317.941406 114.089844 317.382812 114.160156 316.828125 114.160156 "/>
<path style=" stroke:none;fill-rule:nonzero;fill:rgb(31.372549%,31.372549%,31.372549%);fill-opacity:1;" d="M 224.136719 97.566406 L 259.707031 97.566406 L 259.707031 80.730469 L 224.136719 80.730469 Z M 266.503906 111.175781 L 217.34375 111.175781 C 213.589844 111.175781 210.546875 108.128906 210.546875 104.371094 L 210.546875 73.921875 C 210.546875 70.160156 213.589844 67.113281 217.34375 67.113281 L 266.503906 67.113281 C 270.257812 67.113281 273.300781 70.160156 273.300781 73.921875 L 273.300781 104.371094 C 273.300781 108.128906 270.257812 111.175781 266.503906 111.175781 "/>
<path style=" stroke:none;fill-rule:nonzero;fill:rgb(31.372549%,31.372549%,31.372549%);fill-opacity:1;" d="M 330.722656 108.238281 C 326.96875 108.238281 323.925781 105.195312 323.925781 101.433594 L 323.925781 21.683594 C 323.925781 17.925781 326.96875 14.878906 330.722656 14.878906 C 334.480469 14.878906 337.519531 17.925781 337.519531 21.683594 L 337.519531 101.433594 C 337.519531 105.195312 334.480469 108.238281 330.722656 108.238281 "/>
<path style=" stroke:none;fill-rule:nonzero;fill:rgb(31.372549%,31.372549%,31.372549%);fill-opacity:1;" d="M 332.191406 135.902344 C 329.691406 135.902344 327.285156 134.515625 326.101562 132.121094 C 324.433594 128.753906 325.800781 124.667969 329.164062 122.996094 C 340.179688 117.523438 347.96875 111.902344 347.96875 89.28125 L 347.96875 41.230469 C 347.96875 35.816406 352.316406 31.414062 357.652344 31.414062 L 416.234375 31.414062 C 415.695312 29.777344 415.019531 28.054688 414.183594 26.417969 C 412.476562 23.066406 413.804688 18.96875 417.144531 17.257812 C 420.492188 15.550781 424.578125 16.878906 426.289062 20.226562 C 430.316406 28.117188 431.507812 36.964844 431.558594 37.339844 C 431.8125 39.277344 431.214844 41.238281 429.925781 42.707031 C 428.632812 44.183594 426.773438 45.023438 424.816406 45.023438 L 361.566406 45.023438 L 361.566406 89.28125 C 361.566406 116.605469 351.480469 127.105469 335.207031 135.191406 C 334.238281 135.671875 333.203125 135.902344 332.191406 135.902344 "/>
<path style=" stroke:none;fill-rule:nonzero;fill:rgb(31.372549%,31.372549%,31.372549%);fill-opacity:1;" d="M 375.257812 110.800781 C 372.777344 110.800781 370.386719 109.4375 369.1875 107.070312 C 367.492188 103.722656 368.828125 99.625 372.175781 97.925781 C 373.558594 97.226562 375.136719 95.9375 375.136719 92.195312 L 375.136719 70.75 L 356.101562 70.75 C 352.351562 70.75 349.304688 67.703125 349.304688 63.945312 C 349.304688 60.1875 352.351562 57.140625 356.101562 57.140625 L 381.933594 57.140625 C 385.6875 57.140625 388.730469 60.1875 388.730469 63.945312 L 388.730469 92.195312 C 388.730469 100.308594 385.035156 106.65625 378.324219 110.0625 C 377.339844 110.5625 376.292969 110.800781 375.257812 110.800781 "/>
<path style=" stroke:none;fill-rule:nonzero;fill:rgb(31.372549%,31.372549%,31.372549%);fill-opacity:1;" d="M 374.976562 133.78125 C 372.289062 133.78125 369.742188 132.171875 368.671875 129.519531 C 367.269531 126.035156 368.957031 122.070312 372.433594 120.664062 C 395.765625 111.246094 411.230469 92.335938 417.144531 65.984375 C 417.96875 62.316406 421.609375 60.015625 425.269531 60.839844 C 428.929688 61.664062 431.230469 65.304688 430.40625 68.972656 C 423.464844 99.882812 405.175781 122.125 377.515625 133.285156 C 376.683594 133.625 375.820312 133.78125 374.976562 133.78125 "/>
<path style=" stroke:none;fill-rule:nonzero;fill:rgb(31.372549%,31.372549%,31.372549%);fill-opacity:1;" d="M 428.199219 135.878906 C 426.640625 135.878906 425.066406 135.339844 423.785156 134.246094 C 416.609375 128.097656 406.433594 114.136719 398.738281 82.550781 C 393.925781 62.792969 391.050781 39.902344 391.050781 21.320312 C 391.050781 17.5625 394.09375 14.515625 397.847656 14.515625 C 401.601562 14.515625 404.644531 17.5625 404.644531 21.320312 C 404.644531 53.457031 414.605469 108.472656 432.621094 123.898438 C 435.472656 126.34375 435.808594 130.636719 433.367188 133.496094 C 432.027344 135.066406 430.117188 135.878906 428.199219 135.878906 "/>
</g>
</svg>
