<svg xmlns="http://www.w3.org/2000/svg" width="256" height="256" viewBox="0 0 100 100"><rect width="100" height="100" rx="20" fill="#000000"></rect><path fill="#fff" d="M20.45 54.30L15.40 54.30L15.40 65.05Q15.10 65.15 14.60 65.28Q14.10 65.40 13.50 65.40L13.50 65.40Q11.30 65.40 11.30 63.55L11.30 63.55L11.30 36.95Q11.30 36.15 11.70 35.73Q12.10 35.30 12.95 35.05L12.95 35.05Q14.40 34.60 16.48 34.40Q18.55 34.20 20.50 34.20L20.50 34.20Q26.85 34.20 29.78 36.88Q32.70 39.55 32.70 44.10L32.70 44.10Q32.70 48.75 29.70 51.53Q26.70 54.30 20.45 54.30L20.45 54.30ZM15.35 50.90L20.20 50.90Q24.20 50.90 26.40 49.25Q28.60 47.60 28.60 44.15L28.60 44.15Q28.60 40.75 26.48 39.18Q24.35 37.60 20.40 37.60L20.40 37.60Q19.05 37.60 17.73 37.73Q16.40 37.85 15.35 38.05L15.35 38.05L15.35 50.90ZM60.40 53.60L60.40 53.60Q60.40 56.40 59.60 58.65Q58.80 60.90 57.33 62.50Q55.85 64.10 53.75 64.95Q51.65 65.80 49.05 65.80L49.05 65.80Q46.45 65.80 44.35 64.95Q42.25 64.10 40.75 62.50Q39.25 60.90 38.45 58.65Q37.65 56.40 37.65 53.60L37.65 53.60Q37.65 50.80 38.48 48.55Q39.30 46.30 40.80 44.70Q42.30 43.10 44.40 42.25Q46.50 41.40 49.05 41.40L49.05 41.40Q51.60 41.40 53.70 42.25Q55.80 43.10 57.28 44.70Q58.75 46.30 59.58 48.55Q60.40 50.80 60.40 53.60ZM49.05 44.70L49.05 44.70Q45.65 44.70 43.70 47.05Q41.75 49.40 41.75 53.60L41.75 53.60Q41.75 57.85 43.68 60.18Q45.60 62.50 49.05 62.50L49.05 62.50Q52.50 62.50 54.40 60.15Q56.30 57.80 56.30 53.60L56.30 53.60Q56.30 49.40 54.38 47.05Q52.45 44.70 49.05 44.70ZM76.45 54.30L71.40 54.30L71.40 65.05Q71.10 65.15 70.60 65.28Q70.10 65.40 69.50 65.40L69.50 65.40Q67.30 65.40 67.30 63.55L67.30 63.55L67.30 36.95Q67.30 36.15 67.70 35.73Q68.10 35.30 68.95 35.05L68.95 35.05Q70.40 34.60 72.48 34.40Q74.55 34.20 76.50 34.20L76.50 34.20Q82.85 34.20 85.78 36.88Q88.70 39.55 88.70 44.10L88.70 44.10Q88.70 48.75 85.70 51.53Q82.70 54.30 76.45 54.30L76.45 54.30ZM71.35 50.90L76.20 50.90Q80.20 50.90 82.40 49.25Q84.60 47.60 84.60 44.15L84.60 44.15Q84.60 40.75 82.48 39.18Q80.35 37.60 76.40 37.60L76.40 37.60Q75.05 37.60 73.73 37.73Q72.40 37.85 71.35 38.05L71.35 38.05L71.35 50.90Z"></path></svg>