<svg width="566" height="100" xmlns="http://www.w3.org/2000/svg" version="1.1" viewbox="0 0 949 256" viewBox="0 0 566 100">
 <g id="Layer_1">
  <title>Layer 1</title>
  <g>
   <rect x="0" y="0" fill="#000000" rx="20" height="100" width="100"/>
   <path d="m20.45,54.3l-5.05,0l0,10.75q-0.3,0.1 -0.8,0.23q-0.5,0.12 -1.1,0.12l0,0q-2.2,0 -2.2,-1.85l0,0l0,-26.6q0,-0.8 0.4,-1.22q0.4,-0.43 1.25,-0.68l0,0q1.45,-0.45 3.53,-0.65q2.07,-0.2 4.02,-0.2l0,0q6.35,0 9.28,2.68q2.92,2.67 2.92,7.22l0,0q0,4.65 -3,7.43q-3,2.77 -9.25,2.77l0,0zm-5.1,-3.4l4.85,0q4,0 6.2,-1.65q2.2,-1.65 2.2,-5.1l0,0q0,-3.4 -2.12,-4.97q-2.13,-1.58 -6.08,-1.58l0,0q-1.35,0 -2.67,0.13q-1.33,0.12 -2.38,0.32l0,0l0,12.85zm45.05,2.7l0,0q0,2.8 -0.8,5.05q-0.8,2.25 -2.27,3.85q-1.48,1.6 -3.58,2.45q-2.1,0.85 -4.7,0.85l0,0q-2.6,0 -4.7,-0.85q-2.1,-0.85 -3.6,-2.45q-1.5,-1.6 -2.3,-3.85q-0.8,-2.25 -0.8,-5.05l0,0q0,-2.8 0.83,-5.05q0.82,-2.25 2.32,-3.85q1.5,-1.6 3.6,-2.45q2.1,-0.85 4.65,-0.85l0,0q2.55,0 4.65,0.85q2.1,0.85 3.58,2.45q1.47,1.6 2.3,3.85q0.82,2.25 0.82,5.05zm-11.35,-8.9l0,0q-3.4,0 -5.35,2.35q-1.95,2.35 -1.95,6.55l0,0q0,4.25 1.93,6.58q1.92,2.32 5.37,2.32l0,0q3.45,0 5.35,-2.35q1.9,-2.35 1.9,-6.55l0,0q0,-4.2 -1.92,-6.55q-1.93,-2.35 -5.33,-2.35zm27.4,9.6l-5.05,0l0,10.75q-0.3,0.1 -0.8,0.23q-0.5,0.12 -1.1,0.12l0,0q-2.2,0 -2.2,-1.85l0,0l0,-26.6q0,-0.8 0.4,-1.22q0.4,-0.43 1.25,-0.68l0,0q1.45,-0.45 3.53,-0.65q2.07,-0.2 4.02,-0.2l0,0q6.35,0 9.28,2.68q2.92,2.67 2.92,7.22l0,0q0,4.65 -3,7.43q-3,2.77 -9.25,2.77l0,0zm-5.1,-3.4l4.85,0q4,0 6.2,-1.65q2.2,-1.65 2.2,-5.1l0,0q0,-3.4 -2.12,-4.97q-2.13,-1.58 -6.08,-1.58l0,0q-1.35,0 -2.67,0.13q-1.33,0.12 -2.38,0.32l0,0l0,12.85z" fill="#fff"/>
  </g>
  <text font-weight="bold" xml:space="preserve" text-anchor="start" font-family="Noto Sans JP" font-size="70" id="svg_2" y="78" x="146" stroke-width="0" stroke="#000" fill="#000000">面向问题编程</text>
 </g>

</svg>